<svg width="47" height="16" viewBox="0 0 47 17"
    xmlns="http://www.w3.org/2000/svg">
    <g fill="#D5D5D5" fill-rule="nonzero">
        <path d="M6.594 8.275c-.505-.437-1.322-.774-2.49-1.011a10.98 10.98 0 0 1-1.225-.337c-.311-.14-.447-.258-.506-.337-.078-.1-.116-.238-.116-.417 0-.139.038-.337.35-.515.272-.139.642-.218 1.089-.218.39 0 .72.04.992.139s.525.257.759.475c.253.238.544.357.856.357.214 0 .408-.06.564-.178.214-.179.33-.397.33-.635a.944.944 0 0 0-.252-.634c-.331-.416-.779-.734-1.343-.971-.544-.238-1.186-.337-1.887-.337-.564 0-1.108.099-1.614.277-.525.198-.934.476-1.265.872-.33.397-.505.873-.505 1.448 0 1.387 1.05 2.28 3.132 2.696.739.138 1.264.317 1.556.515.272.178.389.397.389.654 0 .278-.117.476-.39.635-.291.178-.719.277-1.264.277-.408 0-.817-.08-1.186-.238-.35-.178-.623-.357-.798-.575-.408-.396-.875-.456-1.381-.079a.946.946 0 0 0-.389.773c0 .238.078.456.253.635.37.376.895.693 1.537.911a6.312 6.312 0 0 0 2.042.337c.72 0 1.362-.118 1.887-.356.525-.238.953-.575 1.226-1.011.272-.437.428-.912.428-1.428 0-.694-.273-1.268-.779-1.724M13.578 11.097a.81.81 0 0 0-.647-.28h-.547a.859.859 0 0 1-.708-.359c-.202-.26-.303-.559-.303-.938V5.786h1.173c.283 0 .506-.08.688-.24a.814.814 0 0 0 .283-.619c0-.26-.101-.499-.283-.659-.182-.16-.405-.24-.688-.24h-1.173V1.913c0-.28-.101-.519-.283-.719a.997.997 0 0 0-.728-.28c-.284 0-.526.1-.729.28a.971.971 0 0 0-.283.72v2.096h-.546c-.283 0-.506.08-.688.24a.838.838 0 0 0-.283.658c0 .24.101.46.283.62.182.16.405.239.688.239h.546V9.5c0 .619.142 1.178.385 1.677.263.5.627.899 1.092 1.178.465.3.991.44 1.557.44h.284c.323 0 .606-.1.809-.28a.914.914 0 0 0 .343-.719c.02-.26-.06-.5-.242-.699M15.676 3.656c-.256 0-.475.1-.657.28-.183.18-.274.44-.274.74v7.099c0 .28.091.54.256.72.182.2.401.3.657.3a.87.87 0 0 0 .675-.3c.164-.2.255-.44.255-.72v-7.1c0-.3-.091-.54-.255-.74-.146-.18-.384-.28-.657-.28M15.436 0c-.316 0-.594.11-.817.332a1.108 1.108 0 0 0-.335.81c0 .314.112.59.335.811.223.221.501.332.817.332.316 0 .595-.11.818-.332.223-.221.334-.497.334-.81 0-.314-.111-.59-.334-.811A1.127 1.127 0 0 0 15.436 0M24.758 8.23c0 .516-.12.991-.362 1.407-.24.416-.562.753-.943.99a2.574 2.574 0 0 1-1.345.357c-.502 0-.944-.12-1.346-.357a2.505 2.505 0 0 1-.943-.99 2.976 2.976 0 0 1-.342-1.406c0-.515.12-1.01.342-1.426.22-.416.542-.753.943-.99a2.574 2.574 0 0 1 1.346-.357c.502 0 .943.119 1.345.356.401.238.723.575.943.99.241.417.362.912.362 1.427m-.301-3.981a4.754 4.754 0 0 0-2.35-.594c-.863 0-1.646.198-2.328.594-.703.396-1.245.95-1.667 1.644-.401.693-.602 1.485-.602 2.337v7.209c0 .297.1.535.3.733.202.178.443.277.724.277.3 0 .542-.099.743-.277.18-.179.28-.436.28-.733v-3.763c.322.297.683.535 1.065.733a4.296 4.296 0 0 0 1.807.396c.803 0 1.546-.198 2.188-.594.663-.397 1.165-.951 1.546-1.644a5.029 5.029 0 0 0 .562-2.337c0-.852-.2-1.644-.602-2.337a4.397 4.397 0 0 0-1.666-1.644M45.012 8.25c0 .515-.12.99-.361 1.407-.241.416-.562.752-.944.99a2.574 2.574 0 0 1-1.345.356c-.502 0-.944-.118-1.345-.356a2.505 2.505 0 0 1-.944-.99 2.976 2.976 0 0 1-.341-1.407c0-.515.12-1.01.341-1.426.221-.415.542-.752.944-.99a2.574 2.574 0 0 1 1.345-.356c.502 0 .944.118 1.345.356.402.238.723.575.944.99.26.416.361.911.361 1.426m1.386-2.337A4.596 4.596 0 0 0 44.73 4.25a4.755 4.755 0 0 0-2.349-.594c-.863 0-1.646.198-2.329.594-.703.396-1.245.95-1.666 1.644-.402.693-.603 1.485-.603 2.337v7.209c0 .297.1.535.301.733.201.178.442.277.723.277.301 0 .542-.099.743-.277.18-.179.281-.436.281-.733v-3.763a4.83 4.83 0 0 0 1.064.733 4.295 4.295 0 0 0 1.807.396c.803 0 1.546-.198 2.189-.594a4.386 4.386 0 0 0 1.546-1.644A5.03 5.03 0 0 0 47 8.23c0-.832-.2-1.624-.602-2.318M32.255 10.972c-1.53 0-2.77-1.23-2.77-2.747s1.24-2.747 2.77-2.747 2.77 1.23 2.77 2.747-1.24 2.747-2.77 2.747m0-7.316c-2.545 0-4.608 2.045-4.608 4.569s2.063 4.57 4.608 4.57c2.545 0 4.608-2.046 4.608-4.57 0-2.524-2.063-4.57-4.608-4.57"/>
    </g>
</svg>
