<svg width="31" height="24" viewBox="0 0 31 24" xmlns="http://www.w3.org/2000/svg">
    <path d="M13.83.39c.505.52.505 1.373 0 1.893L9.576 6.669h11.848L17.17 2.283a1.372 1.372 0 0 1 0-1.893 1.264 1.264 0 0 1 1.827 0l6.08 6.28h4.631c.713 0 1.292.599 1.292 1.332 0 .733-.579 1.333-1.292 1.333h-.214L27.489 20.72C27.155 22.614 25.55 24 23.678 24H7.322c-1.872 0-3.477-1.386-3.811-3.28L1.506 9.335h-.214C.579 9.335 0 8.735 0 8.002S.579 6.67 1.292 6.67h4.632l6.08-6.28a1.264 1.264 0 0 1 1.826 0zM4 9l1.943 10.907A1.32 1.32 0 0 0 7.228 21h16.544c.63 0 1.172-.467 1.284-1.093L27 9H4zm5.002 2.019c.654-.126 1.273.391 1.381 1.16l.6 4.194c.11.755-.332 1.482-.985 1.608-.654.126-1.273-.391-1.381-1.16l-.6-4.194c-.11-.755.332-1.482.985-1.608zm12.996 0c.653.126 1.095.853.985 1.608l-.6 4.194c-.108.769-.727 1.286-1.381 1.16-.653-.126-1.095-.853-.985-1.608l.6-4.194c.108-.769.727-1.286 1.381-1.16zM15.5 11c.828 0 1.5.63 1.5 1.4v4.2c0 .77-.672 1.4-1.5 1.4s-1.5-.63-1.5-1.4v-4.2c0-.77.672-1.4 1.5-1.4z" fill="#000" fill-rule="evenodd"/>
</svg>
