<svg width="24" height="18" viewBox="0 0 24 18" xmlns="http://www.w3.org/2000/svg">
    <path d="M10.65.292a1.01 1.01 0 0 1 0 1.42l-3.275 3.29h9.124l-3.276-3.29a1.01 1.01 0 0 1 0-1.42.992.992 0 0 1 1.407 0l4.682 4.71h3.567c.549 0 .995.45.995 1s-.446 1-.995 1h-.165L21.17 15.54A2.99 2.99 0 0 1 18.235 18H5.639a2.99 2.99 0 0 1-2.935-2.46L1.16 7.002H.995a.999.999 0 0 1-.995-1c0-.55.446-1 .995-1h3.567L9.244.292a.992.992 0 0 1 1.407 0zM3.16 7.06l1.483 8.02c.085.46.5.803.98.803H18.25a.996.996 0 0 0 .98-.804l1.484-8.02H3.16zm3.98 2.13a.986.986 0 0 1 1.132.82l.492 2.96a.987.987 0 0 1-.808 1.135.986.986 0 0 1-1.131-.819l-.492-2.96A.987.987 0 0 1 7.14 9.19zm9.593 0a.987.987 0 0 1 .808 1.136l-.492 2.96a.986.986 0 0 1-1.132.82.987.987 0 0 1-.807-1.136l.492-2.96a.986.986 0 0 1 1.131-.82zm-4.796-.013c.581 0 1.053.445 1.053.989v2.964c0 .544-.472.989-1.053.989-.582 0-1.053-.445-1.053-.989v-2.964c0-.544.471-.989 1.053-.989z" fill="#C1C1C1" fill-rule="evenodd"/>
</svg>
